# xmcd
#
# Track frame offsets:
#	150
#	15307
#	30570
#	46830
#
# Disc length: 816 seconds
#
# Revision: 0
# Processed by: cddbd v1.5.2PL0 Copyright (c) Steve Scherf et al.
# Submitted via: dBpowerAMP V4.0
#
DISCID=1f032e04
DTITLE=BlackBerry'n Mr Boo-Hoo - That's blues
DYEAR=2006
DGENRE=Blues
TTITLE0=A looser
TTITLE1=I'm lucky
TTITLE2=Black Dog
TTITLE3=Big Mama
EXTD=BlackBerry'n Mr Boo-Hoo
EXTT0=
EXTT1=
EXTT2=
EXTT3=
PLAYORDER=
